<svg width="312" height="558" viewBox="0 0 312 558" fill="none" xmlns="http://www.w3.org/2000/svg">
<rect width="312" height="558" fill="#E5E5E5"/>
<ellipse cx="158" cy="140" rx="93" ry="88" fill="#DCBD1B"/>
<path d="M65 139C65 167.719 88.9493 205 71 205C53.0507 205 0 167.719 0 139C0 110.281 53.0507 79 71 79C88.9493 79 65 110.281 65 139Z" fill="#C07C15"/>
<path d="M148 29C148 49.9868 99.5244 76 75.5 76C51.4756 76 42 96.9868 42 76C42 55.0132 51.4756 0 75.5 0C99.5244 0 148 8.01318 148 29Z" fill="#C07C15"/>
<path d="M240 77C240 93.2924 212.644 59 190 59C167.356 59 149 45.7924 149 29.5C149 13.2076 167.356 0 190 0C212.644 0 240 60.7076 240 77Z" fill="#C07C15"/>
<path d="M139 246C139 265.33 111.792 281 95.5 281C79.2076 281 70 220.33 70 201C70 181.67 79.2076 211 95.5 211C111.792 211 139 226.67 139 246Z" fill="#C07C15"/>
<path d="M231 219C231 238.33 207.606 288 188 288C168.394 288 137 256.33 137 237C137 217.67 168.394 228 188 228C207.606 228 231 199.67 231 219Z" fill="#C07C15"/>
<path d="M301 188.177C301 205.022 219.74 215.677 204 215.677C188.26 215.677 244 205.022 244 188.177C244 171.332 256.76 157.677 272.5 157.677C288.24 157.677 301 171.332 301 188.177Z" fill="#C07C15"/>
<path d="M312 114.5C312 129.688 281.502 158 263 158C244.498 158 245 129.688 245 114.5C245 99.3122 219.498 78 238 78C256.502 78 312 99.3122 312 114.5Z" fill="#C07C15"/>
<path d="M105 81C106.664 82.3003 108.204 84.1019 110 85" stroke="black" stroke-width="3" stroke-linecap="round"/>
<path d="M140 66L139 71" stroke="black" stroke-width="3" stroke-linecap="round"/>
<path d="M143 93C143.364 95.0799 143.337 96.3149 143 98" stroke="black" stroke-width="3" stroke-linecap="round"/>
<path d="M170 119C170.479 116.872 171.013 115.645 172 114" stroke="black" stroke-width="3" stroke-linecap="round"/>
<path d="M162 91C163.113 89.6172 168.761 84.8807 167 84" stroke="black" stroke-width="3" stroke-linecap="round"/>
<path d="M164 74H172" stroke="black" stroke-width="3" stroke-linecap="round"/>
<path d="M131 110C130.218 107.996 129.585 106.047 129 104" stroke="black" stroke-width="3" stroke-linecap="round"/>
<path d="M121 116C119.785 114.329 118.895 112.791 118 111" stroke="black" stroke-width="3" stroke-linecap="round"/>
<path d="M101 110C99.5786 108.046 98.3277 105.992 97 104" stroke="black" stroke-width="3" stroke-linecap="round"/>
<path d="M97 127C95.7849 125.329 94.8953 123.791 94 122" stroke="black" stroke-width="3" stroke-linecap="round"/>
<path d="M92 138C89.5873 137.145 87.2227 136.111 85 135" stroke="black" stroke-width="3" stroke-linecap="round"/>
<path d="M92 151L87 153" stroke="black" stroke-width="3" stroke-linecap="round"/>
<path d="M103 162V170" stroke="black" stroke-width="3" stroke-linecap="round"/>
<path d="M108 132C108.973 134.347 110.209 136.627 111 139" stroke="black" stroke-width="3" stroke-linecap="round"/>
<path d="M130 131C131.293 134.313 132.889 137.668 134 141" stroke="black" stroke-width="3" stroke-linecap="round"/>
<path d="M150 116C150 119.331 151 122.151 151 125" stroke="black" stroke-width="3" stroke-linecap="round"/>
<path d="M189 94C189.827 92.5866 192.994 88.997 191 88" stroke="black" stroke-width="3" stroke-linecap="round"/>
<path d="M184 79C185.564 76.9356 187.702 73.1489 190 72" stroke="black" stroke-width="3" stroke-linecap="round"/>
<path d="M204 83H212" stroke="black" stroke-width="3" stroke-linecap="round"/>
<path d="M212 97C213.473 95.0557 215.238 93.2857 216 91" stroke="black" stroke-width="3" stroke-linecap="round"/>
<path d="M201 119C201 116.196 200.432 113.351 202 111" stroke="black" stroke-width="3" stroke-linecap="round"/>
<path d="M179 138C179.86 135.797 182.98 131 179 131" stroke="black" stroke-width="3" stroke-linecap="round"/>
<path d="M159 144C159 143.352 159.435 136.129 158 139" stroke="black" stroke-width="3" stroke-linecap="round"/>
<path d="M140 165C140 163.006 141.031 158.016 139 157" stroke="black" stroke-width="3" stroke-linecap="round"/>
<path d="M125 160C124.79 158.895 123 146.078 123 153" stroke="black" stroke-width="3" stroke-linecap="round"/>
<path d="M113 202V197" stroke="black" stroke-width="3" stroke-linecap="round"/>
<path d="M132 205V212" stroke="black" stroke-width="3" stroke-linecap="round"/>
<path d="M127 183V195" stroke="black" stroke-width="3" stroke-linecap="round"/>
<path d="M157 175V185" stroke="black" stroke-width="3" stroke-linecap="round"/>
<path d="M149 193C149 191.358 147 178.188 147 185" stroke="black" stroke-width="3" stroke-linecap="round"/>
<path d="M153 214C153.528 211.294 154 208.744 154 206" stroke="black" stroke-width="3" stroke-linecap="round"/>
<path d="M181 202V210" stroke="black" stroke-width="3" stroke-linecap="round"/>
<path d="M174 197C174.454 194.675 175 192.376 175 190" stroke="black" stroke-width="3" stroke-linecap="round"/>
<path d="M173 175V183" stroke="black" stroke-width="3" stroke-linecap="round"/>
<path d="M166 166C166 163.241 165.878 161.244 167 159" stroke="black" stroke-width="3" stroke-linecap="round"/>
<path d="M183 162V169" stroke="black" stroke-width="3" stroke-linecap="round"/>
<path d="M197 146V154" stroke="black" stroke-width="3" stroke-linecap="round"/>
<path d="M202 134C203.569 132.382 205.062 129.969 207 129" stroke="black" stroke-width="3" stroke-linecap="round"/>
<path d="M217 116L220 112" stroke="black" stroke-width="3" stroke-linecap="round"/>
<path d="M226 129C227.446 125.513 229.319 122.362 231 119C231.414 118.172 233 113.971 233 115" stroke="black" stroke-width="3" stroke-linecap="round"/>
<path d="M233 140C232.953 138.067 232.963 131.982 231 131" stroke="black" stroke-width="3" stroke-linecap="round"/>
<path d="M231 148V160" stroke="black" stroke-width="3" stroke-linecap="round"/>
<path d="M210 158C210.08 154.797 211 152.173 211 149" stroke="black" stroke-width="3" stroke-linecap="round"/>
<path d="M222 165V177" stroke="black" stroke-width="3" stroke-linecap="round"/>
<path d="M211 177C208.836 175.426 206.311 173.155 204 172" stroke="black" stroke-width="3" stroke-linecap="round"/>
<path d="M199 185C198.661 182.922 199.003 178.001 197 177" stroke="black" stroke-width="3" stroke-linecap="round"/>
<path d="M186 179V188" stroke="black" stroke-width="3" stroke-linecap="round"/>
<path d="M201 206C200.511 203.772 199.868 202.026 199 200" stroke="black" stroke-width="3" stroke-linecap="round"/>
<path d="M217 198C216.399 194.92 216 192.105 216 189" stroke="black" stroke-width="3" stroke-linecap="round"/>
<path d="M236 168V177" stroke="black" stroke-width="3" stroke-linecap="round"/>
<path d="M91 179C88.1376 176.048 87 174.83 87 171" stroke="black" stroke-width="3" stroke-linecap="round"/>
<path d="M234 208L259 214H228L308 558H273L216 526L282 377L234 208Z" fill="#24A457"/>
</svg>
